#N canvas 5 449 864 548 10;
#X msg 140 149 disconnect;
#X obj 52 253 sendOSC;
#X obj 519 189 OSCroute /test;
#X obj 403 251 print "test" \$1;
#X msg 52 110 connect 127.0.0.1 12000;
#X obj 519 117 dumpOSC 12001;
#X floatatom 519 297 5 0 0 0 - - -;
#X floatatom 658 270 5 0 0 0 - - -;
#X floatatom 313 117 5 0 0 0 - - -;
#X floatatom 345 159 5 0 0 0 - - -;
#X floatatom 378 115 5 0 0 0 - - -;
#X obj 313 306 print;
#X msg 162 237 send /test \$1 \$2 \$3;
#X obj 247 172 bang;
#X text 517 91 dunoOSC listens for incoming messages in PD;
#X text 50 53 connect to a remote address (127.0.0.1) that is listening
on udp networkport 12000 for incoming osc messages. click the connect
button below to activate the connection.;
#X obj 313 188 pack f f f;
#X obj 519 251 unpack f f;
#X obj 549 378 route 0 1 2 3 4;
#X obj 548 342 prepend;
#X obj 731 301 counter 0 4;
#X obj 612 233 print "received_something_else";
#X obj 664 378 route 0 1 2 3 4;
#X obj 663 342 prepend;
#X obj 754 483 toneGen;
#X obj 671 467 toneGen;
#X obj 510 480 toneGen;
#X obj 383 471 toneGen;
#X obj 597 459 toneGen;
#X connect 0 0 1 0;
#X connect 2 0 3 0;
#X connect 2 0 17 0;
#X connect 2 1 21 0;
#X connect 4 0 1 0;
#X connect 5 0 2 0;
#X connect 6 0 19 0;
#X connect 7 0 20 0;
#X connect 7 0 23 0;
#X connect 8 0 16 0;
#X connect 9 0 13 0;
#X connect 9 0 16 1;
#X connect 10 0 13 0;
#X connect 10 0 16 2;
#X connect 12 0 1 0;
#X connect 13 0 16 0;
#X connect 16 0 11 0;
#X connect 16 0 12 0;
#X connect 17 0 6 0;
#X connect 17 1 7 0;
#X connect 18 0 27 0;
#X connect 18 1 26 0;
#X connect 18 2 28 0;
#X connect 18 3 25 0;
#X connect 18 4 24 0;
#X connect 19 0 18 0;
#X connect 20 0 19 1;
#X connect 20 0 23 1;
#X connect 22 0 27 1;
#X connect 22 1 26 1;
#X connect 22 2 28 1;
#X connect 22 3 25 1;
#X connect 22 4 24 1;
#X connect 23 0 22 0;
