#N canvas 33 348 864 548 10;
#X msg 140 149 disconnect;
#X obj 52 253 sendOSC;
#X obj 519 189 OSCroute /test;
#X floatatom 519 297 5 0 0 0 - - -;
#X floatatom 576 296 5 0 0 0 - - -;
#X floatatom 313 117 5 0 0 0 - - -;
#X floatatom 345 159 5 0 0 0 - - -;
#X floatatom 378 115 5 0 0 0 - - -;
#X obj 313 306 print;
#X msg 162 237 send /test \$1 \$2 \$3;
#X obj 247 172 bang;
#X text 517 91 dunoOSC listens for incoming messages in PD;
#X text 50 53 connect to a remote address (127.0.0.1) that is listening
on udp networkport 12000 for incoming osc messages. click the connect
button below to activate the connection.;
#X obj 313 188 pack f f f;
#X obj 519 251 unpack f f;
#X obj 612 233 print "received_something_else";
#X msg 52 110 connect 127.0.0.1 13000;
#X obj 519 117 dumpOSC 13001;
#X obj 521 357 soundBeats;
#X obj 403 251 print TWO \$1;
#X connect 0 0 1 0;
#X connect 2 0 14 0;
#X connect 2 0 19 0;
#X connect 2 1 15 0;
#X connect 3 0 18 0;
#X connect 4 0 18 1;
#X connect 5 0 13 0;
#X connect 6 0 10 0;
#X connect 6 0 13 1;
#X connect 7 0 10 0;
#X connect 7 0 13 2;
#X connect 9 0 1 0;
#X connect 10 0 13 0;
#X connect 13 0 8 0;
#X connect 13 0 9 0;
#X connect 14 0 3 0;
#X connect 14 1 4 0;
#X connect 16 0 1 0;
#X connect 17 0 2 0;
